# xmcd CD database file
#
# Track frame offsets:
#	150
#	15204
#	28249
#	41783
#	55283
#	69598
#	85083
#	98318
#	111634
#	126006
#	140855
#	154398
#	167953
#	181099
#	194793
#	208001
#	221807
#	232555
#	245551
#	259074
#	270268
#	282474
#	294455
#	307610
#	320103
#	332129
#
# Disc length: 4585 seconds
#
# Revision: 0
# Processed by: cddbd v1.5.2PL0 Copyright (c) Steve Scherf et al.
# Submitted via: CDex 1.70beta2
#
DISCID=8611e71a
DTITLE=Eddy Duchin - Talk Of The Town - CD2
DYEAR=1900
DGENRE=Jazz
TTITLE0=Here Is My Heart
TTITLE1=After All
TTITLE2=Lovely To Look At
TTITLE3=I Won't Dance
TTITLE4=Isn't This a Lovely Day
TTITLE5=Cheek To Cheek
TTITLE6=You Are My Lucky Star
TTITLE7=I've Got A Feelin' You're Foolin'
TTITLE8=How Do I Rate With You
TTITLE9=I Nearly Let Love Go Slipping Thru My Fingers
TTITLE10=A Rendezvous With a Dream
TTITLE11=Take My Heart
TTITLE12=Pennies From Heaven
TTITLE13=A Star Fell Out Of Heaven
TTITLE14=I'll Sing You A Thousand Love Songs
TTITLE15=It's Delovely
TTITLE16=Love Is Good For anything That Ails You
TTITLE17=Let's Call The Whole Thing Off
TTITLE18=Heaven Help This Heart Of Mine
TTITLE19=Ol' Man Mose
TTITLE20=Between The Devil and The Deep Blue Sea
TTITLE21=From Now On
TTITLE22=September Song
TTITLE23=Stormy Weather
TTITLE24=Stardust
TTITLE25=You Can't Brush Me Off
EXTD=
EXTT0=
EXTT1=
EXTT2=
EXTT3=
EXTT4=
EXTT5=
EXTT6=
EXTT7=
EXTT8=
EXTT9=
EXTT10=
EXTT11=
EXTT12=
EXTT13=
EXTT14=
EXTT15=
EXTT16=
EXTT17=
EXTT18=
EXTT19=
EXTT20=
EXTT21=
EXTT22=
EXTT23=
EXTT24=
EXTT25=
PLAYORDER=
